<?xml version="1.0" encoding="UTF-8" standalone="no"?>
<!-- Created with Inkscape (http://www.inkscape.org/) -->

<svg
   xmlns:dc="http://purl.org/dc/elements/1.1/"
   xmlns:cc="http://creativecommons.org/ns#"
   xmlns:rdf="http://www.w3.org/1999/02/22-rdf-syntax-ns#"
   xmlns:svg="http://www.w3.org/2000/svg"
   xmlns="http://www.w3.org/2000/svg"
   xmlns:sodipodi="http://sodipodi.sourceforge.net/DTD/sodipodi-0.dtd"
   xmlns:inkscape="http://www.inkscape.org/namespaces/inkscape"
   width="126.79384mm"
   height="59.899471mm"
   viewBox="0 0 126.79385 59.899471"
   version="1.1"
   id="svg8"
   inkscape:version="0.92.4 5da689c313, 2019-01-14"
   sodipodi:docname="prior_A.svg">
  <defs
     id="defs2" />
  <sodipodi:namedview
     id="base"
     pagecolor="#ffffff"
     bordercolor="#666666"
     borderopacity="1.0"
     inkscape:pageopacity="0.0"
     inkscape:pageshadow="2"
     inkscape:zoom="4.92797"
     inkscape:cx="419.40337"
     inkscape:cy="47.108593"
     inkscape:document-units="mm"
     inkscape:current-layer="layer1"
     showgrid="false"
     inkscape:window-width="1280"
     inkscape:window-height="1016"
     inkscape:window-x="0"
     inkscape:window-y="27"
     inkscape:window-maximized="0"
     fit-margin-top="0"
     fit-margin-left="0"
     fit-margin-right="0"
     fit-margin-bottom="0" />
  <metadata
     id="metadata5">
    <rdf:RDF>
      <cc:Work
         rdf:about="">
        <dc:format>image/svg+xml</dc:format>
        <dc:type
           rdf:resource="http://purl.org/dc/dcmitype/StillImage" />
        <dc:title></dc:title>
      </cc:Work>
    </rdf:RDF>
  </metadata>
  <g
     inkscape:label="Camada 1"
     inkscape:groupmode="layer"
     id="layer1"
     transform="translate(-32.25397,-90.894859)">
    <path
       style="fill:none;stroke:#000000;stroke-width:0.26458332px;stroke-linecap:butt;stroke-linejoin:miter;stroke-opacity:1"
       d="M 32.25397,141.76839 H 159.04781"
       id="path14"
       inkscape:connector-curvature="0" />
    <path
       style="fill:none;stroke:#000000;stroke-width:0.26458332px;stroke-linecap:butt;stroke-linejoin:miter;stroke-opacity:1"
       d="M 92.563709,150.79433 V 90.894859"
       id="path16"
       inkscape:connector-curvature="0" />
    <rect
       style="opacity:1;fill:none;fill-opacity:0.99606299;stroke:#000000;stroke-width:0.30000001;stroke-miterlimit:4;stroke-dasharray:none;stroke-dashoffset:9.99999905;stroke-opacity:1"
       id="rect36"
       width="101.68178"
       height="31.766489"
       x="41.72282"
       y="109.96702" />
    <path
       style="fill:none;stroke:#000000;stroke-width:0.26458332px;stroke-linecap:butt;stroke-linejoin:miter;stroke-opacity:1"
       d="m 41.72282,141.7335 v 2.34264"
       id="path843"
       inkscape:connector-curvature="0" />
    <path
       inkscape:connector-curvature="0"
       id="path845"
       d="m 143.4081,141.7335 v 2.34264"
       style="fill:none;stroke:#000000;stroke-width:0.26458332px;stroke-linecap:butt;stroke-linejoin:miter;stroke-opacity:1" />
    <g
       id="g847"
       transform="matrix(2.3605849,0,0,2.3605849,63.636969,24.616948)"
       style="stroke-width:0.42362386">
      <g
         word-spacing="normal"
         letter-spacing="normal"
         font-size-adjust="none"
         font-stretch="normal"
         font-weight="normal"
         font-variant="normal"
         font-style="normal"
         stroke-miterlimit="10.433"
         xml:space="preserve"
         transform="matrix(0.04889329,0,0,-0.04889329,-8.556326,50.439715)"
         id="content"
         style="font-style:normal;font-variant:normal;font-weight:normal;font-stretch:normal;letter-spacing:normal;word-spacing:normal;text-anchor:start;fill:none;fill-opacity:1;fill-rule:evenodd;stroke:#000000;stroke-width:0.42362386;stroke-linecap:butt;stroke-linejoin:miter;stroke-miterlimit:10.43299961;stroke-dasharray:none;stroke-dashoffset:0;stroke-opacity:1"><path
           id="path837"
           d="m 457.75,400.12 -0.03,-0.15 -0.04,-0.15 -0.03,-0.14 -0.03,-0.13 -0.04,-0.13 -0.03,-0.11 -0.04,-0.12 -0.03,-0.1 -0.04,-0.1 -0.04,-0.09 -0.04,-0.09 -0.05,-0.08 -0.05,-0.07 -0.05,-0.07 -0.06,-0.07 -0.06,-0.06 -0.07,-0.05 -0.07,-0.05 -0.08,-0.04 -0.09,-0.04 -0.09,-0.04 -0.1,-0.03 -0.11,-0.03 -0.12,-0.02 -0.13,-0.02 -0.06,-0.01 -0.07,-0.01 -0.07,-0.01 -0.08,-0.01 h -0.07 l -0.08,-0.01 h -0.08 l -0.09,-0.01 h -0.08 -0.09 -0.1 -0.09 l -0.1,-0.01 h -0.1 c -0.6,0 -1.14,0 -1.14,-0.93 0,-0.41 0.25,-0.61 0.64,-0.61 1.36,0 2.79,0.15 4.18,0.15 1.64,0 3.35,-0.15 4.94,-0.15 0.25,0 0.89,0 0.89,1 0,0.54 -0.5,0.54 -1.19,0.54 -2.5,0 -2.5,0.36 -2.5,0.8 0,0.61 2.1,8.72 2.46,9.97 0.64,-1.44 2.03,-3.19 4.58,-3.19 l -0.05,1.1 c -3.3,0 -3.94,4.14 -3.94,4.43 0,0.1 0,0.21 0.14,0.8 l 2.46,9.77 c 0.34,1.34 1.68,2.73 2.57,3.48 1.75,1.55 3.21,1.89 4.05,1.89 1.98,0 3.19,-1.73 3.19,-4.69 0,-2.93 -1.64,-8.65 -2.55,-10.56 -1.69,-3.48 -4.08,-5.12 -5.92,-5.12 l 0.05,-1.1 c 5.78,0 12,7.27 12,14.6 0,4.68 -2.83,7.96 -6.63,7.96 -2.48,0 -4.87,-1.78 -6.51,-3.73 -0.5,2.69 -2.65,3.73 -4.49,3.73 -2.3,0 -3.25,-1.93 -3.69,-2.82 -0.9,-1.71 -1.54,-4.69 -1.54,-4.85 0,-0.5 0.5,-0.5 0.59,-0.5 0.5,0 0.55,0.07 0.84,1.16 0.86,3.53 1.85,5.92 3.64,5.92 0.85,0 1.55,-0.39 1.55,-2.28 0,-1.16 -0.15,-1.7 -0.34,-2.55 z"
           inkscape:connector-curvature="0"
           style="fill:#000000;stroke-width:0" /><path
           id="path839"
           d="m 497.08,394.25 v 0.02 0.03 0.01 0.02 l -0.01,0.01 v 0.02 l -0.01,0.01 v 0.02 l -0.01,0.02 -0.01,0.02 -0.01,0.02 -0.02,0.03 -0.01,0.02 -0.02,0.03 -0.02,0.03 -0.03,0.03 -0.02,0.03 -0.03,0.04 -0.02,0.02 -0.02,0.02 -0.01,0.02 -0.02,0.02 -0.02,0.02 -0.02,0.03 -0.02,0.02 -0.02,0.02 -0.03,0.03 -0.02,0.02 -0.03,0.03 -0.02,0.03 -0.03,0.03 -0.02,0.03 -0.03,0.03 -0.03,0.03 -0.03,0.03 -0.04,0.03 -0.03,0.04 -0.03,0.03 -0.04,0.04 -0.04,0.03 -0.03,0.04 -0.04,0.04 c -6.22,6.28 -7.81,15.69 -7.81,23.31 0,8.67 1.89,17.35 8.01,23.56 0.64,0.61 0.64,0.71 0.64,0.86 0,0.35 -0.19,0.49 -0.48,0.49 -0.5,0 -4.99,-3.38 -7.92,-9.7 -2.55,-5.49 -3.14,-11.02 -3.14,-15.21 0,-3.89 0.54,-9.9 3.28,-15.54 2.98,-6.13 7.28,-9.36 7.78,-9.36 0.29,0 0.48,0.14 0.48,0.5 z"
           inkscape:connector-curvature="0"
           style="fill:#000000;stroke-width:0" /><path
           id="path841"
           d="m 508.84,411.93 -0.19,-0.3 -0.19,-0.29 -0.19,-0.28 -0.18,-0.26 -0.19,-0.25 -0.18,-0.23 -0.19,-0.22 -0.19,-0.21 -0.18,-0.2 -0.19,-0.18 -0.19,-0.17 -0.18,-0.16 -0.19,-0.15 -0.19,-0.14 -0.19,-0.13 -0.19,-0.12 -0.19,-0.11 -0.19,-0.1 -0.19,-0.09 -0.19,-0.09 -0.19,-0.07 -0.19,-0.07 -0.2,-0.07 -0.19,-0.05 -0.2,-0.05 -0.19,-0.04 -0.2,-0.04 -0.2,-0.03 -0.4,-0.05 -0.41,-0.03 c -0.61,-0.05 -1.05,-0.05 -1.05,-1 0,-0.3 0.25,-0.55 0.64,-0.55 1.35,0 2.9,0.16 4.29,0.16 1.64,0 3.39,-0.16 4.98,-0.16 0.3,0 0.95,0 0.95,0.95 0,0.55 -0.45,0.6 -0.79,0.6 -1.16,0.09 -2.35,0.5 -2.35,1.73 0,0.61 0.3,1.16 0.69,1.84 l 3.8,6.39 h 12.5 l -0.14,1.54 H 514.8 l 9.83,16.45 1.6,-16.45 0.14,-1.54 c 0.11,-1.04 0.79,-7.82 0.79,-8.32 0,-1.5 -2.59,-1.64 -3.57,-1.64 -0.71,0 -1.21,0 -1.21,-1 0,-0.55 0.6,-0.55 0.71,-0.55 2.03,0 4.18,0.16 6.21,0.16 1.25,0 4.4,-0.16 5.65,-0.16 0.29,0 0.89,0 0.89,1 0,0.55 -0.5,0.55 -1.14,0.55 -3.1,0 -3.1,0.34 -3.25,1.79 l -3.04,31.13 c -0.11,1 -0.11,1.2 -0.95,1.2 -0.8,0 -0.98,-0.34 -1.3,-0.84 z"
           inkscape:connector-curvature="0"
           style="fill:#000000;stroke-width:0" /><path
           id="path844"
           d="m 551.62,418.65 v 0.37 l -0.01,0.39 v 0.39 l -0.02,0.41 -0.04,0.84 -0.06,0.88 -0.08,0.92 -0.11,0.95 -0.13,0.97 -0.16,1.01 -0.2,1.02 -0.23,1.03 -0.27,1.05 -0.3,1.06 -0.35,1.07 -0.39,1.07 -0.22,0.53 -0.22,0.53 -0.24,0.53 -0.25,0.53 c -2.99,6.12 -7.27,9.36 -7.77,9.36 -0.29,0 -0.5,-0.19 -0.5,-0.49 0,-0.15 0,-0.25 0.94,-1.15 4.89,-4.92 7.74,-12.85 7.74,-23.27 0,-8.51 -1.85,-17.28 -8.03,-23.56 -0.65,-0.59 -0.65,-0.7 -0.65,-0.84 0,-0.3 0.21,-0.5 0.5,-0.5 0.5,0 4.97,3.39 7.93,9.71 2.53,5.47 3.12,11 3.12,15.19 z"
           inkscape:connector-curvature="0"
           style="fill:#000000;stroke-width:0" /></g>    </g>
    <g
       id="g883"
       transform="matrix(2.3605849,0,0,2.3605849,1.7804231,76.823008)"
       style="stroke-width:0.42362386">
      <g
         word-spacing="normal"
         letter-spacing="normal"
         font-size-adjust="none"
         font-stretch="normal"
         font-weight="normal"
         font-variant="normal"
         font-style="normal"
         stroke-miterlimit="10.433"
         xml:space="preserve"
         transform="matrix(0.04889329,0,0,-0.04889329,-8.556326,50.439715)"
         id="g881"
         style="font-style:normal;font-variant:normal;font-weight:normal;font-stretch:normal;letter-spacing:normal;word-spacing:normal;text-anchor:start;fill:none;fill-opacity:1;fill-rule:evenodd;stroke:#000000;stroke-width:0.42362386;stroke-linecap:butt;stroke-linejoin:miter;stroke-miterlimit:10.43299961;stroke-dasharray:none;stroke-dashoffset:0;stroke-opacity:1"><path
           id="path875"
           d="m 488.35,417.65 h 0.16 0.16 l 0.15,0.01 h 0.08 l 0.08,0.01 h 0.07 l 0.08,0.01 0.07,0.01 0.07,0.01 0.07,0.02 0.07,0.02 0.07,0.02 0.06,0.02 0.06,0.02 0.06,0.03 0.05,0.03 0.06,0.04 0.05,0.03 0.04,0.05 0.04,0.04 0.04,0.05 0.02,0.03 0.02,0.03 0.01,0.03 0.02,0.03 0.01,0.03 0.02,0.03 0.01,0.04 0.01,0.03 0.01,0.04 v 0.04 l 0.01,0.04 0.01,0.04 v 0.04 l 0.01,0.04 v 0.05 0.04 c 0,1 -0.91,1 -1.75,1 h -26.96 c -0.84,0 -1.73,0 -1.73,-1 0,-1 0.89,-1 1.73,-1 z"
           inkscape:connector-curvature="0"
           style="fill:#000000;stroke-width:0" /><path
           id="path877"
           d="m 503.2,411.93 -0.19,-0.3 -0.19,-0.29 -0.18,-0.28 -0.19,-0.26 -0.19,-0.25 -0.18,-0.23 -0.19,-0.22 -0.18,-0.21 -0.19,-0.2 -0.19,-0.18 -0.18,-0.17 -0.19,-0.16 -0.19,-0.15 -0.19,-0.14 -0.18,-0.13 -0.19,-0.12 -0.19,-0.11 -0.19,-0.1 -0.19,-0.09 -0.19,-0.09 -0.2,-0.07 -0.19,-0.07 -0.19,-0.07 -0.2,-0.05 -0.19,-0.05 -0.2,-0.04 -0.2,-0.04 -0.2,-0.03 -0.4,-0.05 -0.41,-0.03 c -0.61,-0.05 -1.04,-0.05 -1.04,-1 0,-0.3 0.25,-0.55 0.64,-0.55 1.34,0 2.89,0.16 4.28,0.16 1.64,0 3.39,-0.16 4.98,-0.16 0.3,0 0.96,0 0.96,0.95 0,0.55 -0.46,0.6 -0.8,0.6 -1.16,0.09 -2.34,0.5 -2.34,1.73 0,0.61 0.29,1.16 0.68,1.84 l 3.8,6.39 h 12.5 l -0.14,1.54 h -11.42 l 9.83,16.45 1.59,-16.45 0.14,-1.54 c 0.11,-1.04 0.8,-7.82 0.8,-8.32 0,-1.5 -2.6,-1.64 -3.58,-1.64 -0.7,0 -1.2,0 -1.2,-1 0,-0.55 0.59,-0.55 0.7,-0.55 2.03,0 4.19,0.16 6.22,0.16 1.25,0 4.39,-0.16 5.64,-0.16 0.29,0 0.89,0 0.89,1 0,0.55 -0.5,0.55 -1.14,0.55 -3.09,0 -3.09,0.34 -3.25,1.79 l -3.03,31.13 c -0.11,1 -0.11,1.2 -0.96,1.2 -0.79,0 -0.98,-0.34 -1.29,-0.84 z"
           inkscape:connector-curvature="0"
           style="fill:#000000;stroke-width:0" /><path
           id="path879"
           d="m 549.59,409.87 -0.01,0.71 -0.02,0.68 -0.03,0.66 -0.04,0.64 -0.06,0.62 -0.07,0.6 -0.09,0.57 -0.11,0.56 -0.13,0.55 -0.15,0.53 -0.17,0.51 -0.19,0.5 -0.21,0.49 -0.24,0.48 -0.26,0.47 -0.14,0.23 -0.15,0.23 c -1.07,1.61 -3.23,3 -6.03,3 v -0.98 c 1.89,0 3.71,-1.14 4.33,-3.17 0.56,-1.88 0.59,-4.39 0.59,-7.43 0,-2.57 0,-5.15 -0.45,-7.34 -0.7,-3.17 -3.06,-3.94 -4.47,-3.94 v 0 c -1.59,0 -3.72,0.94 -4.42,3.8 -0.48,2.05 -0.48,4.91 -0.48,7.48 0,2.55 0,5.21 0.51,7.11 0.74,2.75 2.97,3.49 4.39,3.49 v 0.98 c -8.08,0 -8.08,-9.51 -8.08,-12.03 0,-2.5 0,-11.81 8.08,-11.81 8.1,0 8.1,9.31 8.1,11.81 z"
           inkscape:connector-curvature="0"
           style="fill:#000000;stroke-width:0" /></g>    </g>
    <g
       id="g921"
       transform="matrix(2.3605849,0,0,2.3605849,107.73912,76.823008)"
       style="stroke-width:0.42362386">
      <g
         word-spacing="normal"
         letter-spacing="normal"
         font-size-adjust="none"
         font-stretch="normal"
         font-weight="normal"
         font-variant="normal"
         font-style="normal"
         stroke-miterlimit="10.433"
         xml:space="preserve"
         transform="matrix(0.04889329,0,0,-0.04889329,-8.556326,50.439715)"
         id="g919"
         style="font-style:normal;font-variant:normal;font-weight:normal;font-stretch:normal;letter-spacing:normal;word-spacing:normal;text-anchor:start;fill:none;fill-opacity:1;fill-rule:evenodd;stroke:#000000;stroke-width:0.42362386;stroke-linecap:butt;stroke-linejoin:miter;stroke-miterlimit:10.43299961;stroke-dasharray:none;stroke-dashoffset:0;stroke-opacity:1"><path
           id="path915"
           d="m 464.44,411.93 -0.19,-0.3 -0.18,-0.29 -0.19,-0.28 -0.19,-0.26 -0.18,-0.25 -0.19,-0.23 -0.19,-0.22 -0.18,-0.21 -0.19,-0.2 -0.19,-0.18 -0.18,-0.17 -0.19,-0.16 -0.19,-0.15 -0.18,-0.14 -0.19,-0.13 -0.19,-0.12 -0.19,-0.11 -0.19,-0.1 -0.19,-0.09 -0.19,-0.09 -0.19,-0.07 -0.2,-0.07 -0.19,-0.07 -0.2,-0.05 -0.19,-0.05 -0.2,-0.04 -0.2,-0.04 -0.19,-0.03 -0.41,-0.05 -0.4,-0.03 c -0.61,-0.05 -1.05,-0.05 -1.05,-1 0,-0.3 0.25,-0.55 0.64,-0.55 1.34,0 2.89,0.16 4.28,0.16 1.64,0 3.39,-0.16 4.99,-0.16 0.29,0 0.95,0 0.95,0.95 0,0.55 -0.45,0.6 -0.8,0.6 -1.15,0.09 -2.34,0.5 -2.34,1.73 0,0.61 0.3,1.16 0.69,1.84 l 3.79,6.39 h 12.5 l -0.14,1.54 h -11.42 l 9.83,16.45 1.59,-16.45 0.14,-1.54 c 0.11,-1.04 0.8,-7.82 0.8,-8.32 0,-1.5 -2.59,-1.64 -3.58,-1.64 -0.7,0 -1.2,0 -1.2,-1 0,-0.55 0.59,-0.55 0.7,-0.55 2.03,0 4.19,0.16 6.22,0.16 1.25,0 4.39,-0.16 5.64,-0.16 0.3,0 0.89,0 0.89,1 0,0.55 -0.5,0.55 -1.14,0.55 -3.09,0 -3.09,0.34 -3.25,1.79 l -3.03,31.13 c -0.11,1 -0.11,1.2 -0.95,1.2 -0.8,0 -0.99,-0.34 -1.3,-0.84 z"
           inkscape:connector-curvature="0"
           style="fill:#000000;stroke-width:0" /><path
           id="path917"
           d="m 510.82,409.87 v 0.71 l -0.02,0.68 -0.03,0.66 -0.04,0.64 -0.06,0.62 -0.07,0.6 -0.09,0.57 -0.11,0.56 -0.13,0.55 -0.15,0.53 -0.17,0.51 -0.19,0.5 -0.21,0.49 -0.24,0.48 -0.26,0.47 -0.14,0.23 -0.15,0.23 c -1.08,1.61 -3.23,3 -6.03,3 v -0.98 c 1.89,0 3.7,-1.14 4.33,-3.17 0.56,-1.88 0.59,-4.39 0.59,-7.43 0,-2.57 0,-5.15 -0.45,-7.34 -0.7,-3.17 -3.06,-3.94 -4.47,-3.94 v 0 c -1.59,0 -3.72,0.94 -4.42,3.8 -0.49,2.05 -0.49,4.91 -0.49,7.48 0,2.55 0,5.21 0.52,7.11 0.73,2.75 2.97,3.49 4.39,3.49 v 0.98 c -8.08,0 -8.08,-9.51 -8.08,-12.03 0,-2.5 0,-11.81 8.08,-11.81 8.09,0 8.09,9.31 8.09,11.81 z"
           inkscape:connector-curvature="0"
           style="fill:#000000;stroke-width:0" /></g>    </g>
    <g
       id="g867"
       transform="matrix(2.8111401,0,0,2.8111401,43.456762,18.698237)"
       style="stroke-width:0.35572755">
      <g
         word-spacing="normal"
         letter-spacing="normal"
         font-size-adjust="none"
         font-stretch="normal"
         font-weight="normal"
         font-variant="normal"
         font-style="normal"
         stroke-miterlimit="10.433"
         xml:space="preserve"
         transform="matrix(0.04771103,0,0,-0.04771103,-8.349431,50.439715)"
         id="g865"
         style="font-style:normal;font-variant:normal;font-weight:normal;font-stretch:normal;letter-spacing:normal;word-spacing:normal;text-anchor:start;fill:none;fill-opacity:1;fill-rule:evenodd;stroke:#000000;stroke-width:0.35572755;stroke-linecap:butt;stroke-linejoin:miter;stroke-miterlimit:10.43299961;stroke-dasharray:none;stroke-dashoffset:0;stroke-opacity:1"><path
           id="path855"
           d="m 497.91,447.92 v 0.04 0.04 0.05 0.04 0.03 0.04 0.04 0.03 l -0.01,0.04 v 0.03 0.03 0.03 0.03 l -0.01,0.03 v 0.03 l -0.01,0.02 v 0.03 0.02 l -0.01,0.03 v 0.02 l -0.02,0.04 -0.01,0.04 -0.02,0.03 -0.02,0.03 -0.02,0.03 -0.02,0.03 -0.03,0.02 -0.03,0.02 -0.04,0.02 -0.03,0.01 -0.04,0.01 -0.05,0.02 h -0.02 -0.03 l -0.02,0.01 h -0.03 l -0.03,0.01 h -0.02 -0.03 -0.03 -0.04 l -0.03,0.01 h -0.03 -0.04 -0.04 -0.03 -0.04 -0.04 -0.04 -0.05 -0.04 -0.05 c -2.23,-2.2 -5.39,-2.23 -6.82,-2.23 v -1.25 c 0.84,0 3.14,0 5.04,0.97 v -17.77 c 0,-1.16 0,-1.61 -3.48,-1.61 h -1.31 v -1.25 c 0.62,0.03 4.9,0.14 6.2,0.14 1.08,0 5.47,-0.11 6.23,-0.14 v 1.25 h -1.33 c -3.48,0 -3.48,0.45 -3.48,1.61 z"
           inkscape:connector-curvature="0"
           style="fill:#000000;stroke-width:0" /><polyline
           id="polyline857"
           points="462,418 531.36,418 531.36,420.04 462,420.04 "
           style="fill:#000000;fill-rule:nonzero;stroke-width:0" /><path
           id="path859"
           d="m 479.11,395.38 h -1.18 c -0.1,-0.76 -0.46,-2.83 -0.91,-3.17 -0.27,-0.2 -2.95,-0.2 -3.44,-0.2 h -6.42 c 3.66,3.23 4.88,4.2 6.97,5.84 2.58,2.06 4.98,4.22 4.98,7.53 0,4.22 -3.68,6.8 -8.15,6.8 -4.32,0 -7.25,-3.03 -7.25,-6.23 0,-1.79 1.5,-1.96 1.86,-1.96 0.82,0 1.84,0.6 1.84,1.85 0,0.62 -0.25,1.84 -2.06,1.84 1.08,2.47 3.45,3.23 5.09,3.23 3.49,0 5.3,-2.7 5.3,-5.53 0,-3.03 -2.16,-5.43 -3.28,-6.68 l -8.39,-8.3 c -0.36,-0.31 -0.36,-0.39 -0.36,-1.36 h 14.36 z"
           inkscape:connector-curvature="0"
           style="fill:#000000;stroke-width:0" /><path
           id="path861"
           d="m 488.49,393.23 -0.12,-0.18 -0.11,-0.17 -0.11,-0.16 -0.12,-0.16 -0.11,-0.15 -0.11,-0.14 -0.12,-0.14 -0.11,-0.14 -0.12,-0.13 -0.11,-0.12 -0.12,-0.12 -0.12,-0.12 -0.12,-0.1 -0.13,-0.11 -0.12,-0.1 -0.13,-0.09 -0.13,-0.09 -0.13,-0.08 -0.14,-0.08 -0.14,-0.07 -0.14,-0.07 -0.15,-0.06 -0.14,-0.06 -0.16,-0.05 -0.15,-0.05 -0.17,-0.04 -0.16,-0.04 -0.17,-0.03 -0.18,-0.03 -0.18,-0.03 -0.18,-0.02 -0.19,-0.01 c -0.35,-0.03 -0.8,-0.03 -0.8,-0.74 0,-0.37 0.31,-0.51 0.49,-0.51 0.9,0 2.06,0.14 3,0.14 1.1,0 2.54,-0.14 3.59,-0.14 0.17,0 0.69,0 0.69,0.76 0,0.46 -0.46,0.49 -0.58,0.49 -0.28,0.05 -1.55,0.11 -1.55,1.05 0,0.42 0.36,1.01 0.53,1.32 l 2.78,4.32 h 9.97 l -0.17,1.26 h -8.95 l 7.31,11.39 1.64,-11.39 0.17,-1.26 0.85,-5.78 c -0.14,-0.35 -0.36,-0.91 -2.41,-0.91 -0.42,0 -0.91,0 -0.91,-0.77 0,-0.14 0.1,-0.48 0.55,-0.48 1.02,0 3.49,0.14 4.5,0.14 0.63,0 1.42,-0.03 2.06,-0.03 0.63,-0.05 1.36,-0.11 1.99,-0.11 0.45,0 0.69,0.28 0.69,0.73 0,0.52 -0.41,0.52 -0.97,0.52 -2.02,0 -2.1,0.28 -2.21,1.12 l -3.06,21.5 c -0.11,0.72 -0.17,0.97 -0.83,0.97 -0.67,0 -0.87,-0.31 -1.18,-0.79 z"
           inkscape:connector-curvature="0"
           style="fill:#000000;stroke-width:0" /><path
           id="path863"
           d="m 526.29,391.97 v 0.18 0.21 l -0.01,0.24 v 0.26 l -0.02,0.27 -0.01,0.3 -0.03,0.32 -0.03,0.32 -0.05,0.35 -0.05,0.35 -0.07,0.35 -0.07,0.37 -0.1,0.36 -0.11,0.37 -0.12,0.37 -0.14,0.37 -0.17,0.35 -0.18,0.36 -0.2,0.34 -0.23,0.33 -0.25,0.32 -0.27,0.3 -0.15,0.14 -0.15,0.14 -0.17,0.13 -0.16,0.13 -0.18,0.12 -0.18,0.12 -0.19,0.11 -0.2,0.1 -0.2,0.1 -0.22,0.09 -0.22,0.08 -0.23,0.08 -0.23,0.06 -0.25,0.06 -0.25,0.05 -0.27,0.05 -0.27,0.03 -0.28,0.02 -0.29,0.02 h -0.3 v -0.82 c 1.84,0 3.17,-0.94 3.66,-2.69 0.35,-1.27 0.35,-3.35 0.35,-4.81 0,-1.69 0,-3.71 -0.37,-5.21 -0.66,-2.42 -2.64,-2.78 -3.64,-2.78 v 0 c -0.92,0 -3.02,0.31 -3.64,2.83 -0.35,1.34 -0.38,3.12 -0.38,5.16 0,1.84 0,3.56 0.41,4.98 0.62,2.09 2.55,2.52 3.61,2.52 v 0.82 c -6.5,0 -6.5,-6.82 -6.5,-8.62 0,-1.81 0,-8.52 6.5,-8.52 6.5,0 6.5,6.71 6.5,8.52 z"
           inkscape:connector-curvature="0"
           style="fill:#000000;stroke-width:0" /></g>    </g>
    <g
       id="g924"
       transform="matrix(1.6426767,0,0,1.6426767,113.53929,56.787984)"
       style="stroke-width:0.6087625">
      <g
         word-spacing="normal"
         letter-spacing="normal"
         font-size-adjust="none"
         font-stretch="normal"
         font-weight="normal"
         font-variant="normal"
         font-style="normal"
         stroke-miterlimit="10.433"
         xml:space="preserve"
         transform="matrix(0.08557067,0,0,-0.08557067,-14.974868,90.464602)"
         id="g922"
         style="font-style:normal;font-variant:normal;font-weight:normal;font-stretch:normal;letter-spacing:normal;word-spacing:normal;text-anchor:start;fill:none;fill-opacity:1;fill-rule:evenodd;stroke:#000000;stroke-width:0.6087625;stroke-linecap:butt;stroke-linejoin:miter;stroke-miterlimit:10.43299961;stroke-dasharray:none;stroke-dashoffset:0;stroke-opacity:1"><path
           id="path919"
           d="m 464.44,411.93 -0.19,-0.3 -0.18,-0.29 -0.19,-0.28 -0.19,-0.26 -0.18,-0.25 -0.19,-0.23 -0.19,-0.22 -0.18,-0.21 -0.19,-0.2 -0.19,-0.18 -0.18,-0.17 -0.19,-0.16 -0.19,-0.15 -0.18,-0.14 -0.19,-0.13 -0.19,-0.12 -0.19,-0.11 -0.19,-0.1 -0.19,-0.09 -0.19,-0.09 -0.19,-0.07 -0.2,-0.07 -0.19,-0.07 -0.2,-0.05 -0.19,-0.05 -0.2,-0.04 -0.2,-0.04 -0.19,-0.03 -0.41,-0.05 -0.4,-0.03 c -0.61,-0.05 -1.05,-0.05 -1.05,-1 0,-0.3 0.25,-0.55 0.64,-0.55 1.34,0 2.89,0.16 4.28,0.16 1.64,0 3.39,-0.16 4.99,-0.16 0.29,0 0.95,0 0.95,0.95 0,0.55 -0.45,0.6 -0.8,0.6 -1.15,0.09 -2.34,0.5 -2.34,1.73 0,0.61 0.3,1.16 0.69,1.84 l 3.79,6.39 h 12.5 l -0.14,1.54 h -11.42 l 9.83,16.45 1.59,-16.45 0.14,-1.54 c 0.11,-1.04 0.8,-7.82 0.8,-8.32 0,-1.5 -2.59,-1.64 -3.58,-1.64 -0.7,0 -1.2,0 -1.2,-1 0,-0.55 0.59,-0.55 0.7,-0.55 2.03,0 4.19,0.16 6.22,0.16 1.25,0 4.39,-0.16 5.64,-0.16 0.3,0 0.89,0 0.89,1 0,0.55 -0.5,0.55 -1.14,0.55 -3.09,0 -3.09,0.34 -3.25,1.79 l -3.03,31.13 c -0.11,1 -0.11,1.2 -0.95,1.2 -0.8,0 -0.99,-0.34 -1.3,-0.84 z"
           inkscape:connector-curvature="0"
           style="fill:#000000;stroke-width:0" /></g>    </g>
    <flowRoot
       xml:space="preserve"
       id="flowRoot931"
       style="font-style:normal;font-weight:normal;font-size:16px;line-height:1.25;font-family:sans-serif;letter-spacing:0px;word-spacing:0px;fill:#000000;fill-opacity:1;stroke:none"
       transform="matrix(0.26458333,0,0,0.26458333,32.25397,90.894859)"><flowRegion
         id="flowRegion933"><rect
           id="rect935"
           width="87.662872"
           height="100.64996"
           x="-58.441914"
           y="-201.37064" /></flowRegion><flowPara
         id="flowPara937"></flowPara></flowRoot>  </g>
</svg>
